<?xml version="1.0" encoding="UTF-8" standalone="no"?>
<!-- Created with Inkscape (http://www.inkscape.org/) -->

<svg
   xmlns:dc="http://purl.org/dc/elements/1.1/"
   xmlns:cc="http://creativecommons.org/ns#"
   xmlns:rdf="http://www.w3.org/1999/02/22-rdf-syntax-ns#"
   xmlns:svg="http://www.w3.org/2000/svg"
   xmlns="http://www.w3.org/2000/svg"
   xmlns:sodipodi="http://sodipodi.sourceforge.net/DTD/sodipodi-0.dtd"
   xmlns:inkscape="http://www.inkscape.org/namespaces/inkscape"
   width="210mm"
   height="297mm"
   viewBox="0 0 210 297"
   version="1.1"
   id="svg8"
   inkscape:version="0.92.4 (5da689c313, 2019-01-14)"
   sodipodi:docname="logo.svg"
   inkscape:export-filename="/Users/juergen/passiopeia/passiopeia-artwork/Logo/logo-512x512.png"
   inkscape:export-xdpi="69.089996"
   inkscape:export-ydpi="69.089996">
  <defs
     id="defs2" />
  <sodipodi:namedview
     id="base"
     pagecolor="#ffffff"
     bordercolor="#666666"
     borderopacity="1.0"
     inkscape:pageopacity="0.0"
     inkscape:pageshadow="2"
     inkscape:zoom="0.98994949"
     inkscape:cx="268.74929"
     inkscape:cy="543.92356"
     inkscape:document-units="mm"
     inkscape:current-layer="layer1"
     showgrid="false"
     inkscape:window-width="1920"
     inkscape:window-height="978"
     inkscape:window-x="0"
     inkscape:window-y="1"
     inkscape:window-maximized="1" />
  <metadata
     id="metadata5">
    <rdf:RDF>
      <cc:Work
         rdf:about="">
        <dc:format>image/svg+xml</dc:format>
        <dc:type
           rdf:resource="http://purl.org/dc/dcmitype/StillImage" />
        <dc:title></dc:title>
      </cc:Work>
    </rdf:RDF>
  </metadata>
  <g
     inkscape:label="Ebene 1"
     inkscape:groupmode="layer"
     id="layer1">
    <rect
       style="fill:#162d50;fill-opacity:1;stroke:none;stroke-width:0;stroke-miterlimit:4;stroke-dasharray:none"
       id="rect32"
       width="188.23215"
       height="188.23215"
       x="10.883926"
       y="54.383926"
       rx="25.000002"
       ry="25.000002" />
    <g
       id="use67"
       inkscape:label="Clip"
       style="fill:#4400aa;fill-opacity:1">
      <rect
         style="fill:#0b1728;fill-opacity:1;stroke:none;stroke-width:0;stroke-miterlimit:4;stroke-dasharray:none"
         id="rect1015"
         width="170.84525"
         height="170.84525"
         x="19.577377"
         y="63.077377"
         rx="25.000002"
         ry="25.000002" />
    </g>
    <path
       style="fill:#fff6d5;stroke:#fff6d5;stroke-width:0.30392018px;stroke-linecap:butt;stroke-linejoin:miter;stroke-opacity:1"
       d="m 53.287644,156.93295 c 60.499466,20.18361 59.859286,19.93576 59.859286,19.93576"
       id="path1097"
       inkscape:connector-curvature="0" />
    <path
       sodipodi:type="star"
       style="fill:#ffcc00;fill-opacity:1;stroke:none;stroke-width:0;stroke-miterlimit:4;stroke-dasharray:none"
       id="path1067"
       sodipodi:sides="5"
       sodipodi:cx="53.721177"
       sodipodi:cy="157.21803"
       sodipodi:r1="7.3923101"
       sodipodi:r2="3.6961548"
       sodipodi:arg1="0.70862627"
       sodipodi:arg2="1.3369448"
       inkscape:flatsided="false"
       inkscape:rounded="0"
       inkscape:randomized="0"
       d="m 59.333836,162.02888 -4.756165,-1.2153 -3.697479,3.22904 -0.313915,-4.89893 -4.213586,-2.51868 4.562155,-1.8124 1.09334,-4.78568 3.133482,3.77881 4.889307,-0.43903 -2.625556,4.14783 z"
       inkscape:transform-center-x="0.5293417"
       inkscape:transform-center-y="-0.18325532" />
    <path
       style="fill:#fff6d5;stroke:#fff6d5;stroke-width:0.26458332px;stroke-linecap:butt;stroke-linejoin:miter;stroke-opacity:1"
       d="m 111.16266,125.69096 c 4.10095,50.11941 4.10095,50.11941 4.10095,50.11941"
       id="path1119"
       inkscape:connector-curvature="0" />
    <path
       sodipodi:type="star"
       style="fill:#ffdd55;fill-opacity:1;stroke:none;stroke-width:0;stroke-miterlimit:4;stroke-dasharray:none"
       id="path1089"
       sodipodi:sides="8"
       sodipodi:cx="113.58955"
       sodipodi:cy="176.46144"
       sodipodi:r1="9.2777567"
       sodipodi:r2="4.6388783"
       sodipodi:arg1="0.72425"
       sodipodi:arg2="1.1169491"
       inkscape:flatsided="false"
       inkscape:rounded="0"
       inkscape:randomized="0"
       d="m 120.53855,182.60864 -4.9152,-1.97793 -1.46684,5.09115 -2.07696,-4.87418 -4.6372,2.56277 1.97793,-4.9152 -5.09115,-1.46684 4.87418,-2.07697 -2.56277,-4.6372 4.9152,1.97793 1.46684,-5.09115 2.07697,4.87418 4.6372,-2.56277 -1.97793,4.9152 5.09114,1.46685 -4.87418,2.07696 z"
       inkscape:transform-center-x="-1.1717769e-06" />
    <path
       style="fill:#fff6d5;stroke:#fff6d5;stroke-width:0.26458332000000001px;stroke-linecap:butt;stroke-linejoin:miter;stroke-opacity:1"
       d="m 111.16266,125.69096 c 41.63257,8.25265 41.63257,8.25265 41.63257,8.25265"
       id="path1121"
       inkscape:connector-curvature="0" />
    <path
       sodipodi:type="star"
       style="fill:#d4aa00;fill-opacity:1;stroke:none;stroke-width:0;stroke-miterlimit:4;stroke-dasharray:none"
       id="path1091"
       sodipodi:sides="6"
       sodipodi:cx="111.71867"
       sodipodi:cy="125.41296"
       sodipodi:r1="5.9763284"
       sodipodi:r2="2.9881642"
       sodipodi:arg1="1.1071487"
       sodipodi:arg2="1.6307475"
       inkscape:flatsided="false"
       inkscape:rounded="0"
       inkscape:randomized="0"
       d="m 114.39137,130.75835 -2.85173,-2.3626 -3.11386,2.00452 0.6202,-3.65097 -3.2929,-1.69442 3.47194,-1.28837 -0.17904,-3.69894 2.85173,2.36259 3.11386,-2.00452 -0.6202,3.65097 3.2929,1.69442 -3.47194,1.28837 z"
       inkscape:transform-center-x="-1.4007448e-06"
       inkscape:transform-center-y="-1.0984998e-06" />
    <path
       style="fill:#fff6d5;stroke:#fff6d5;stroke-width:0.26458332000000001px;stroke-linecap:butt;stroke-linejoin:miter;stroke-opacity:1"
       d="m 153.01934,85.664047 c 0.2731,46.927773 0.2731,46.927773 0.2731,46.927773"
       id="path1123"
       inkscape:connector-curvature="0" />
    <path
       sodipodi:type="star"
       style="fill:#ffeeaa;fill-opacity:1;stroke:none;stroke-width:0;stroke-miterlimit:4;stroke-dasharray:none"
       id="path1093"
       sodipodi:sides="4"
       sodipodi:cx="151.67545"
       sodipodi:cy="86.525243"
       sodipodi:r1="7.3705354"
       sodipodi:r2="3.6852677"
       sodipodi:arg1="0.78539816"
       sodipodi:arg2="1.5707963"
       inkscape:flatsided="false"
       inkscape:rounded="0"
       inkscape:randomized="0"
       d="m 156.8872,91.737001 -5.21175,-1.526488 -5.21176,1.526488 1.52649,-5.211755 -1.52649,-5.211756 5.21176,1.526488 5.21175,-1.526488 -1.52649,5.211756 z"
       inkscape:transform-center-x="0.95381721"
       inkscape:transform-center-y="-0.95381862" />
    <path
       sodipodi:type="star"
       style="fill:#ffd42a;fill-opacity:1;stroke:none;stroke-width:0;stroke-miterlimit:4;stroke-dasharray:none"
       id="path1095"
       sodipodi:sides="6"
       sodipodi:cx="154.21452"
       sodipodi:cy="133.69832"
       sodipodi:r1="1.4403348"
       sodipodi:r2="6.2623253"
       sodipodi:arg1="0.87605805"
       sodipodi:arg2="1.3996568"
       inkscape:flatsided="false"
       inkscape:rounded="0"
       inkscape:randomized="0"
       d="m 155.1366,134.80481 0.14443,5.06435 -1.56372,-4.81905 -4.31364,2.65725 3.39156,-3.76374 -4.45807,-2.4071 4.95528,1.0553 -0.14442,-5.06434 1.56372,4.81905 4.31363,-2.65725 -3.39155,3.76374 4.45806,2.4071 z"
       inkscape:transform-center-x="-1.0135197e-06"
       inkscape:transform-center-y="-1.3813425e-06" />
    <g
       aria-label="******"
       style="font-style:normal;font-weight:normal;font-size:10.58333302px;line-height:1.25;font-family:sans-serif;letter-spacing:0px;word-spacing:0px;fill:#000000;fill-opacity:1;stroke:none;stroke-width:0.26458332"
       id="text1162"
       transform="matrix(1.5204988,0,0,1.5204988,156.88478,-105.32856)">
      <path
         d="m -68.242375,203.92184 v 3.99355 l 3.671093,-1.26504 1.116211,2.92696 -3.671093,1.53789 2.306836,3.27422 -2.480469,1.83554 -2.505274,-3.29902 -2.455664,3.29902 -2.604492,-1.83554 2.331641,-3.39825 -3.695899,-1.41386 1.066602,-2.92696 3.795117,1.26504 v -3.99355 z"
         style="font-style:normal;font-variant:normal;font-weight:normal;font-stretch:normal;font-size:50.79999924px;font-family:Impact;-inkscape-font-specification:Impact;fill:#ffffff;stroke-width:0.26458332"
         id="path1164"
         inkscape:connector-curvature="0" />
      <path
         d="m -53.954876,203.92184 v 3.99355 l 3.671094,-1.26504 1.116211,2.92696 -3.671094,1.53789 2.306836,3.27422 -2.480469,1.83554 -2.505273,-3.29902 -2.455664,3.29902 -2.604492,-1.83554 2.33164,-3.39825 -3.695898,-1.41386 1.066601,-2.92696 3.795118,1.26504 v -3.99355 z"
         style="font-style:normal;font-variant:normal;font-weight:normal;font-stretch:normal;font-size:50.79999924px;font-family:Impact;-inkscape-font-specification:Impact;fill:#ffffff;stroke-width:0.26458332"
         id="path1166"
         inkscape:connector-curvature="0" />
      <path
         d="m -39.667376,203.92184 v 3.99355 l 3.671093,-1.26504 1.116211,2.92696 -3.671094,1.53789 2.306836,3.27422 -2.480468,1.83554 -2.505274,-3.29902 -2.455664,3.29902 -2.604492,-1.83554 2.331641,-3.39825 -3.695899,-1.41386 1.066602,-2.92696 3.795117,1.26504 v -3.99355 z"
         style="font-style:normal;font-variant:normal;font-weight:normal;font-stretch:normal;font-size:50.79999924px;font-family:Impact;-inkscape-font-specification:Impact;fill:#ffffff;stroke-width:0.26458332"
         id="path1168"
         inkscape:connector-curvature="0" />
      <path
         d="m -25.379876,203.92184 v 3.99355 l 3.671094,-1.26504 1.116211,2.92696 -3.671094,1.53789 2.306836,3.27422 -2.480469,1.83554 -2.505273,-3.29902 -2.455664,3.29902 -2.604493,-1.83554 2.331641,-3.39825 -3.695898,-1.41386 1.066601,-2.92696 3.795117,1.26504 v -3.99355 z"
         style="font-style:normal;font-variant:normal;font-weight:normal;font-stretch:normal;font-size:50.79999924px;font-family:Impact;-inkscape-font-specification:Impact;fill:#ffffff;stroke-width:0.26458332"
         id="path1170"
         inkscape:connector-curvature="0" />
      <path
         d="m -11.092378,203.92184 v 3.99355 l 3.6710941,-1.26504 1.1162109,2.92696 -3.6710937,1.53789 2.3068359,3.27422 -2.4804682,1.83554 -2.505274,-3.29902 -2.455664,3.29902 -2.604492,-1.83554 2.331641,-3.39825 -3.695899,-1.41386 1.066602,-2.92696 3.795117,1.26504 v -3.99355 z"
         style="font-style:normal;font-variant:normal;font-weight:normal;font-stretch:normal;font-size:50.79999924px;font-family:Impact;-inkscape-font-specification:Impact;fill:#ffffff;stroke-width:0.26458332"
         id="path1172"
         inkscape:connector-curvature="0" />
      <path
         d="m 3.1951247,203.92184 v 3.99355 l 3.6710937,-1.26504 1.1162109,2.92696 -3.6710937,1.53789 2.3068359,3.27422 -2.4804687,1.83554 -2.5052734,-3.29902 -2.45566403,3.29902 -2.60449217,-1.83554 2.3316406,-3.39825 -3.6958984,-1.41386 1.0666016,-2.92696 3.79511711,1.26504 v -3.99355 z"
         style="font-style:normal;font-variant:normal;font-weight:normal;font-stretch:normal;font-size:50.79999924px;font-family:Impact;-inkscape-font-specification:Impact;fill:#ffffff;stroke-width:0.26458332"
         id="path1174"
         inkscape:connector-curvature="0" />
    </g>
  </g>
</svg>
